# ProBuilder 4.4.0
# https://unity3d.com/unity/features/worldbuilding/probuilder
# 1/29/2021 12:43:29 AM

mtllib ./Pipe.mtl
o Pipe

g Pipe
v 3.477292 3.985395 -0.2448126
v 3.478315 4.126817 -0.1862428
v 3.490623 3.985395 -0.2450453
v 3.491646 4.126817 -0.1864755
v 3.477619 4.125228 -0.2278987
v 3.476805 4.012661 -0.2745188
v 3.490887 4.125228 -0.2281303
v 3.490073 4.012661 -0.2747504
v 3.474824 3.926817 -0.3862124
v 3.488155 3.926817 -0.3864451
v 3.474841 3.966033 -0.3870697
v 3.488108 3.966033 -0.3873015
v 3.472356 3.985395 -0.5276123
v 3.485687 3.985395 -0.527845
v 3.472876 4.012661 -0.4996208
v 3.486144 4.012661 -0.4998524
v 3.471334 4.126817 -0.586182
v 3.484665 4.126817 -0.5864147
v 3.472062 4.125228 -0.5462409
v 3.48533 4.125228 -0.5464724
v 3.472356 4.268238 -0.5276123
v 3.485687 4.268238 -0.527845
v 3.472876 4.237796 -0.4996208
v 3.486144 4.237796 -0.4998524
v 3.474824 4.326817 -0.3862124
v 3.488155 4.326817 -0.3864451
v 3.474841 4.284423 -0.3870697
v 3.488108 4.284423 -0.3873015
v 3.477292 4.268238 -0.2448126
v 3.490624 4.268238 -0.2450453
v 3.476805 4.237796 -0.2745188
v 3.490073 4.237796 -0.2747504
v 3.503955 3.985395 -0.245278
v 3.504977 4.126817 -0.1867082
v 3.490948 4.126817 -0.2264694
v 3.49013 4.01368 -0.2733252
v 3.504279 4.126817 -0.2267022
v 3.503461 4.01368 -0.2735579
v 3.501487 3.926817 -0.3866778
v 3.488155 3.966817 -0.3864451
v 3.501487 3.966817 -0.3866778
v 3.499019 3.985395 -0.5280777
v 3.486181 4.01368 -0.499565
v 3.499512 4.01368 -0.4997977
v 3.497996 4.126817 -0.5866474
v 3.485363 4.126817 -0.5464208
v 3.498694 4.126817 -0.5466534
v 3.499019 4.268238 -0.5280777
v 3.486181 4.239954 -0.499565
v 3.499512 4.239954 -0.4997977
v 3.501487 4.326817 -0.3866778
v 3.488155 4.286817 -0.3864451
v 3.501487 4.286817 -0.3866778
v 3.503955 4.268238 -0.245278
v 3.49013 4.239954 -0.2733253
v 3.503461 4.239954 -0.273558
v 3.517286 3.985395 -0.2455107
v 3.518309 4.126817 -0.1869409
v 3.517611 4.126817 -0.2269349
v 3.516793 4.01368 -0.2737906
v 3.514818 3.926817 -0.3869105
v 3.514818 3.966817 -0.3869105
v 3.51235 3.985395 -0.5283104
v 3.512844 4.01368 -0.5000304
v 3.511328 4.126817 -0.5868801
v 3.512026 4.126817 -0.5468861
v 3.51235 4.268238 -0.5283104
v 3.512844 4.239954 -0.5000304
v 3.514818 4.326817 -0.3869105
v 3.514818 4.286817 -0.3869105
v 3.517286 4.268238 -0.2455107
v 3.516793 4.239954 -0.2737907
v 3.477617 4.126817 -0.2262367
v 3.476799 4.01368 -0.2730925
v 3.474824 3.966817 -0.3862124
v 3.47285 4.01368 -0.4993323
v 3.472032 4.126817 -0.5461881
v 3.47285 4.239954 -0.4993323
v 3.474824 4.286817 -0.3862124
v 3.476799 4.239954 -0.2730926
v 3.375664 4.239953 -0.4976349
v 3.377639 4.286816 -0.3845161
v 3.375691 4.237795 -0.4979235
v 3.377655 4.284423 -0.3853734
v 3.379613 4.239954 -0.2713967
v 3.37962 4.237796 -0.2728229
v 3.380431 4.126817 -0.2245414
v 3.380434 4.125228 -0.2262034
v 3.379627 4.014294 -0.2718362
v 3.379634 4.013275 -0.2732624
v 3.377719 3.966819 -0.3845179
v 3.377735 3.966035 -0.3853753
v 3.375744 4.01368 -0.4976363
v 3.375771 4.012661 -0.4979249
v 3.374905 4.12679 -0.54366
v 3.374935 4.125201 -0.5437128

vt 0.3826834 0
vt 0 0
vt 0.3826834 0.03333334
vt 0 0.03333334
vt -0.04352744 7.85517E-05
vt -0.3481336 7.856559E-05
vt -0.04352744 0.03325319
vt -0.3481336 0.0332532
vt 0.6532815 0
vt 0.2705981 0
vt 0.6532815 0.03333334
vt 0.2705981 0.03333334
vt -0.3131351 7.861605E-05
vt -0.617742 7.864959E-05
vt -0.3131351 0.03325325
vt -0.6177425 0.03325329
vt -0.3100961 8.171846E-05
vt -0.6147035 8.16328E-05
vt -0.3100966 0.03325636
vt -0.6147035 0.03325633
vt -0.03619015 7.853313E-05
vt -0.3407962 7.854703E-05
vt -0.03619015 0.03325323
vt -0.3407962 0.03325325
vt -0.3826834 0
vt -0.3826834 0.03333334
vt 0.348134 7.854703E-05
vt 0.04352728 7.853313E-05
vt 0.348134 0.03325325
vt 0.04352728 0.03325323
vt -0.270598 0
vt -0.6532815 0
vt -0.270598 0.03333334
vt -0.6532815 0.03333334
vt 0.6177431 7.853313E-05
vt 0.3131358 7.861879E-05
vt 0.6177431 0.03325323
vt 0.3131362 0.03325326
vt 0.6147024 7.767346E-05
vt 0.3100956 7.763992E-05
vt 0.6147029 0.03325231
vt 0.3100956 0.03325228
vt 0.3407958 7.854468E-05
vt 0.03618882 7.853079E-05
vt 0.3407958 0.03325318
vt 0.03618882 0.03325317
vt 0.3826834 0.06666667
vt 0 0.06666667
vt -0.03826834 0.03333334
vt -0.3444151 0.03333334
vt -0.03826834 0.06666667
vt -0.3444151 0.06666667
vt 0.6532815 0.06666667
vt 0.2705981 0.06666667
vt -0.3088664 0.03333334
vt -0.6150131 0.03333334
vt -0.3088664 0.06666667
vt -0.6150131 0.06666667
vt -0.3826834 0.06666667
vt 0.3444149 0.03333334
vt 0.03826825 0.03333334
vt 0.3444149 0.06666667
vt 0.03826825 0.06666667
vt -0.270598 0.06666667
vt -0.6532815 0.06666667
vt 0.6150132 0.03333334
vt 0.3088664 0.03333334
vt 0.6150132 0.06666667
vt 0.3088664 0.06666667
vt 0.3826834 0.1
vt 0 0.1
vt -0.03826834 0.1
vt -0.3444151 0.1
vt 0.6532815 0.1
vt 0.2705981 0.1
vt -0.3088664 0.1
vt -0.6150132 0.1
vt -0.3826834 0.1
vt 0.3444149 0.1
vt 0.03826825 0.1
vt -0.270598 0.1
vt -0.6532815 0.1
vt 0.6150132 0.1
vt 0.3088664 0.1
vt 0.1464466 0.3535534
vt 0.09999999 0
vt 0.2171573 0.2828427
vt -0.1464466 0.3535534
vt -0.2171573 0.2828427
vt -0.09999999 0
vt 0.5 0.5
vt 0.5 0.4
vt -0.5 0.5
vt -0.5 0.4
vt 0.8535534 0.3535534
vt 0.7828428 0.2828427
vt -0.8535534 0.3535534
vt -0.7828428 0.2828427
vt 1 -4.371139E-08
vt 0.9 -3.496911E-08
vt -1 -4.371139E-08
vt -0.9 -3.496911E-08
vt 0.8535534 -0.3535534
vt 0.7828428 -0.2828427
vt -0.8535534 -0.3535534
vt -0.7828428 -0.2828427
vt 0.5 -0.5
vt 0.5 -0.4
vt -0.5 -0.5
vt -0.5 -0.4
vt 0.1464467 -0.3535534
vt 0.2171573 -0.2828428
vt -0.1464467 -0.3535534
vt -0.2171573 -0.2828428
vt 0.7843737 -0.2864702
vt 0.5015393 -0.4036419
vt 0.7850932 -0.2810752
vt 0.503681 -0.3976576
vt -0.7835106 -0.2825986
vt -0.9005042 0.0003117673
vt -0.7842253 -0.277203
vt -0.9006305 0.004284329
vt -0.7830431 -0.2832514
vt -0.5023485 -0.3944388
vt -0.7837626 -0.2778565
vt 0.4988438 -0.4027777
vt 0.2160053 -0.2856133
vt 0.5009864 -0.3967937
vt 0.2195705 -0.2802187
vt -0.2169938 -0.2832244
vt -0.4998332 -0.4003896
vt -0.220559 -0.2778298
vt -0.5019763 -0.3944056
vt 0.2138472 -0.2842172
vt 0.09670187 -0.001371183
vt 0.2174127 -0.2788229
vt 0.1008568 0.002600337
vt -0.1036848 0.003773003
vt -0.2202417 -0.2776517
vt 0.09234933 0.003188177
vt 0.2105471 0.2845189
vt 0.09650397 0.007159968
vt 0.2141126 0.2870674
vt -0.2159831 0.2833499
vt -0.09888548 0.0004824591
vt -0.2195488 0.2858982
vt -0.10304 0.004454382
vt -0.2255408 0.2632648
vt -0.5071509 0.3822721
vt -0.2291016 0.2658198
vt -0.5092899 0.3842364
vt 0.5007921 0.397559
vt 0.2180848 0.2800752
vt 0.5029313 0.3995233
vt 0.2216455 0.2826304
vt -0.4971932 0.3929875
vt -0.7800138 0.2757885
vt -0.4993364 0.3949474
vt -0.7807347 0.2783375
vt 0.7824011 0.2815365
vt 0.4995775 0.3987402
vt 0.7831219 0.2840857
vt 0.501721 0.4006999
vt -0.7713423 0.277719
vt -0.886304 -0.005100735
vt -0.772065 0.2802674
vt -0.886438 -0.001128254
vt 0.8975841 -0.001378056
vt 0.7805459 0.2815139
vt 0.8977183 0.002594247
vt 0.7812688 0.2840625
vt 0.9092951 -0.004137448
vt 0.794377 -0.2871116
vt 0.9094215 -0.0001647183
vt 0.795092 -0.281716
vt -0.6150132 6.046298E-06
vt -0.3088664 6.046298E-06
vt -0.6150116 -0.2429939
vt -0.3088672 -0.242994
vt 0.04352815 -0.2429115
vt 0.3474008 -0.2428022
vt 0.3131365 -0.2429189
vt 0.6177416 -0.242919
vt 0.3100965 -0.2429206
vt 0.6147022 -0.2429206
vt -0.3444151 -5.715459E-07
vt -0.03826834 -5.715457E-07
vt -0.3444149 -0.2430006
vt -0.03826966 -0.2430006
vt 0.03619028 -0.2429224
vt 0.3407955 -0.2429224
vt 0.03826834 -9.549206E-07
vt 0.3444151 -9.549206E-07
vt 0.03826899 -0.243001
vt 0.3434167 -0.2429468
vt -0.3481336 -0.0005463813
vt -0.04352744 -0.0005463953
vt -0.3471353 -0.2434974
vt -0.04352801 -0.2435412
vt 0.3088664 0.001349475
vt 0.6150131 0.001349475
vt 0.3092942 -0.2416033
vt 0.6150123 -0.2414437
vt -0.6177415 -0.2427177
vt -0.3135629 -0.2428633
vt 0.3088665 9.897263E-06
vt 0.6150132 9.897263E-06
vt 0.3088696 -0.2427902
vt 0.6150119 -0.2427902
vt -0.6147022 -0.2427143
vt -0.3100993 -0.2427143
vt 0.03826931 -0.2427896
vt 0.3435554 -0.2428803
vt -0.3407962 0.006584403
vt -0.03619015 0.006584389
vt -0.3399365 -0.2363137
vt -0.03619144 -0.2362083
vt -0.3444149 0.00667205
vt -0.03826827 0.00667205
vt -0.3436815 -0.2362265
vt -0.03826906 -0.2363201

vn 0.006449612 -0.1530734 0.3694956
vn -0.006449526 0.1530739 -0.3694954
vn 0.00267148 -0.3695519 0.1530501
vn -0.002671414 0.3695518 -0.1530502
vn -0.002671569 -0.3695519 -0.1530501
vn 0.002673766 0.3695519 0.1530499
vn -0.006449649 -0.1530734 -0.3694956
vn 0.006449647 0.1530736 0.3694955
vn -0.3999392 4.768372E-08 0.00698103
vn 0.3999392 -4.768372E-08 -0.00698103
vn -0.3998392 -0.006155945 0.009529562
vn 0.3996539 -0.008749963 0.01415134
vn 0.3999268 -0.006284671 -0.00437724
vn -0.3999416 -0.004573009 0.005086522
vn 0.3998736 -0.004663582 -0.008911878
vn -0.3999908 -0.002244151 0.001563043
vn 0.399798 -0.002289058 -0.01250557
vn -0.3999282 0.005184438 -0.005537311
vn 0.3994779 0.005286143 -0.01973692
vn 0.3984706 0.02927611 -0.01908394
vn -0.3988522 0.02979987 -0.005383315
vn 0.3998406 0.01103438 -0.002408018
vn -0.3996724 0.01125196 0.01163778
vn 0.3997898 0.007322773 0.01070313
vn -0.399149 0.007463923 0.02498938
vn -0.3989488 -0.0085806 0.02768261
vn 0.008068909 -0.1518853 0.3699481
vn 0.009683378 -0.1506974 0.3704006
vn 0.005116411 -0.1540402 0.3691106
vn 0.003787342 -0.155007 0.3687256
vn -0.003810268 0.1530705 -0.3695334
vn -0.005120687 0.1540453 -0.3691084
vn -0.006431107 0.15502 -0.3686835
vn -0.0003570873 -0.3695413 0.1530986
vn 0.001172209 -0.369084 0.1541816
vn 0.002701506 -0.3686267 0.1552646
vn -0.00117036 0.3690819 -0.1541866
vn 0.0003222414 0.3686119 -0.1553228
vn -0.008026258 -0.1519237 -0.3699335
vn -0.00959783 -0.1507742 -0.3703716
vn 0.009572543 0.1530689 0.3694297
vn 0.008021918 0.1519178 0.369936
vn 0.006471294 0.1507667 0.3704424
vn -0.009658595 0.1530684 -0.3694277
vn -0.008064941 0.1518919 -0.3699455
vn -0.006471286 0.1507154 -0.3704633

usemtl ProBuilderDefault
f 3/3/1 4/4/1 2/2/1 1/1/1
f 7/7/2 8/8/2 6/6/2 5/5/2
f 10/11/3 3/12/3 1/10/3 9/9/3
f 8/15/4 12/16/4 11/14/4 6/13/4
f 14/11/5 10/12/5 9/10/5 13/9/5
f 12/19/6 16/20/6 15/18/6 11/17/6
f 18/3/7 14/4/7 13/2/7 17/1/7
f 16/23/8 20/24/8 19/22/8 15/21/8
f 22/4/2 18/26/2 17/25/2 21/2/2
f 20/29/1 24/30/1 23/28/1 19/27/1
f 26/33/4 22/34/4 21/32/4 25/31/4
f 24/37/3 28/38/3 27/36/3 23/35/3
f 30/33/6 26/34/6 25/32/6 29/31/6
f 28/41/5 32/42/5 31/40/5 27/39/5
f 4/4/8 30/26/8 29/25/8 2/2/8
f 32/45/7 7/46/7 5/44/7 31/43/7
f 33/47/1 34/48/1 4/4/1 3/3/1
f 37/51/2 38/52/2 36/50/2 35/49/2
f 39/53/3 33/54/3 3/12/3 10/11/3
f 38/57/4 41/58/4 40/56/4 36/55/4
f 42/53/5 39/54/5 10/12/5 14/11/5
f 41/57/6 44/58/6 43/56/6 40/55/6
f 45/47/7 42/48/7 14/4/7 18/3/7
f 44/51/8 47/52/8 46/50/8 43/49/8
f 48/48/2 45/59/2 18/26/2 22/4/2
f 47/62/1 50/63/1 49/61/1 46/60/1
f 51/64/4 48/65/4 22/34/4 26/33/4
f 50/68/3 53/69/3 52/67/3 49/66/3
f 54/64/6 51/65/6 26/34/6 30/33/6
f 53/68/5 56/69/5 55/67/5 52/66/5
f 34/48/8 54/59/8 30/26/8 4/4/8
f 56/62/7 37/63/7 35/61/7 55/60/7
f 57/70/1 58/71/1 34/48/1 33/47/1
f 59/72/2 60/73/2 38/52/2 37/51/2
f 61/74/3 57/75/3 33/54/3 39/53/3
f 60/76/4 62/77/4 41/58/4 38/57/4
f 63/74/5 61/75/5 39/54/5 42/53/5
f 62/76/6 64/77/6 44/58/6 41/57/6
f 65/70/7 63/71/7 42/48/7 45/47/7
f 64/72/8 66/73/8 47/52/8 44/51/8
f 67/71/2 65/78/2 45/59/2 48/48/2
f 66/79/1 68/80/1 50/63/1 47/62/1
f 69/81/4 67/82/4 48/65/4 51/64/4
f 68/83/3 70/84/3 53/69/3 50/68/3
f 71/81/6 69/82/6 51/65/6 54/64/6
f 70/83/5 72/84/5 56/69/5 53/68/5
f 58/71/8 71/78/8 54/59/8 34/48/8
f 72/79/7 59/80/7 37/63/7 56/62/7
f 73/86/9 74/87/9 1/85/9 2/2/9
f 60/89/10 59/90/10 58/2/10 57/88/10
f 74/87/9 75/92/9 9/91/9 1/85/9
f 62/94/10 60/89/10 57/88/10 61/93/10
f 75/92/9 76/96/9 13/95/9 9/91/9
f 64/98/10 62/94/10 61/93/10 63/97/10
f 76/96/9 77/100/9 17/99/9 13/95/9
f 66/102/10 64/98/10 63/97/10 65/101/10
f 77/100/9 78/104/9 21/103/9 17/99/9
f 68/106/10 66/102/10 65/101/10 67/105/10
f 78/104/9 79/108/9 25/107/9 21/103/9
f 70/110/10 68/106/10 67/105/10 69/109/10
f 79/108/9 80/112/9 29/111/9 25/107/9
f 72/114/10 70/110/10 69/109/10 71/113/10
f 80/112/9 73/86/9 2/2/9 29/111/9
f 59/90/10 72/114/10 71/113/10 58/2/10
f 83/117/11 84/118/11 82/116/11 81/115/11
f 24/121/12 20/122/12 46/120/12 49/119/12
f 28/124/13 24/125/13 49/123/13 52/110/13
f 84/128/14 86/129/14 85/127/14 82/126/14
f 32/132/15 28/133/15 52/131/15 55/130/15
f 86/136/16 88/137/16 87/135/16 85/134/16
f 7/138/17 32/139/17 55/130/17 35/90/17
f 88/142/18 90/143/18 89/141/18 87/140/18
f 8/146/19 7/147/19 35/145/19 36/144/19
f 90/150/20 92/151/20 91/149/20 89/148/20
f 12/154/21 8/155/21 36/153/21 40/152/21
f 92/158/22 94/159/22 93/157/22 91/156/22
f 16/162/23 12/163/23 40/161/23 43/160/23
f 94/166/24 96/167/24 95/165/24 93/164/24
f 20/170/25 16/171/25 43/169/25 46/168/25
f 96/174/26 83/175/26 81/173/26 95/172/26
f 81/178/4 82/179/4 79/177/4 78/176/4
f 83/180/27 96/181/28 19/27/27 23/28/1
f 84/182/3 83/183/3 23/35/3 27/36/3
f 82/178/6 85/179/6 80/177/6 79/176/6
f 86/184/5 84/185/5 27/39/5 31/40/5
f 85/188/8 87/189/8 73/187/8 80/186/8
f 88/190/7 86/191/7 31/43/7 5/44/7
f 87/194/29 89/195/30 74/193/29 73/192/1
f 90/198/32 88/199/33 5/197/32 6/196/31
f 89/202/35 91/203/36 75/201/35 74/200/34
f 92/204/37 90/205/38 6/13/37 11/14/4
f 91/208/5 93/209/5 76/207/5 75/206/5
f 94/210/6 92/211/6 11/17/6 15/18/6
f 93/212/39 95/213/40 77/193/39 76/192/7
f 96/216/42 94/217/43 15/215/42 19/214/41
f 95/220/45 81/221/46 78/219/45 77/218/44

